# xmcd
#
# Track frame offsets: 
#        150
#        15889
#        41579
#        74152
#        108736
#        145297
#        169234
#        187747
#        203466
#        232590
#        258349
#        281329
#        311890
#        352334
#
# Disc length: 4705 seconds
#
# Revision: 4
# Processed by: cddbd v1.5.2PL0 Copyright (c) Steve Scherf et al.
# Submitted via: ExactAudioCopy v1.5
#
DISCID=c8125f0e
DTITLE=Various Artist - SERVE CHILLED [CD2) [HEDK079]
DYEAR=2008
DGENRE=Ambient
TTITLE0=Furry Phreaks Ft. Terra Deva - All Over The World (Beatless Ve
TTITLE0=rsion Mix)
TTITLE1=No Logo - Mindset
TTITLE2=Track n Field - We Was So Close
TTITLE3=Nina Simone - Here Comes The Sun (Francois K. Remix)
TTITLE4=Jody Watley - I Want Your Love (Danny Krivit Edit)
TTITLE5=Reel People Ft. Tony Momrelle and Imaani - Amazing
TTITLE6=4hero - Look Inside
TTITLE7=Ralph Myerz ft. Pee Wee - My Darling
TTITLE8=Kenneth Bager - Fragment One... And I Kept Hearing (Jazzbox Re
TTITLE8=mix)
TTITLE9=Greg Churchill - Look No Further
TTITLE10=Flash Callahan - Do You Know The Truth
TTITLE11=Antena - Camino Del Sol (Todd Terje Remix)
TTITLE12=Chaz Jankel - Glad To Know You (Todd Terje Re-Edit)
TTITLE13=Data Track - Data Track
EXTD=
EXTT0=
EXTT1=
EXTT2=
EXTT3=
EXTT4=
EXTT5=
EXTT6=
EXTT7=
EXTT8=
EXTT9=
EXTT10=
EXTT11=
EXTT12=
EXTT13=
PLAYORDER=
